# xmcd CD database file
#
# Track frame offsets:
#	150
#	28093
#	48872
#	69442
#	91900
#	109419
#	132134
#	150433
#	174562
#	199127
#	222104
#
# Disc length: 3250 seconds
#
# Revision: 11
# Processed by: cddbd v1.5.1PL0 Copyright (c) Steve Scherf et al.
# Submitted via: CDex 1.51
#
DISCID=900cb00b
DTITLE=HY - TRUNK
DYEAR=2004
DGENRE=J-Pop
TTITLE0=てがみ
TTITLE1=ささくれ
TTITLE2=そこにあるべきではないもの
TTITLE3=僕がキミを
TTITLE4=弱虫
TTITLE5=涙
TTITLE6=DADA
TTITLE7=HeyBo
TTITLE8=すてきなキッカケ
TTITLE9=初雪
TTITLE10=Song for…
EXTD=YEAR: 2004
EXTT0=
EXTT1=
EXTT2=
EXTT3=
EXTT4=
EXTT5=
EXTT6=
EXTT7=
EXTT8=
EXTT9=
EXTT10=
PLAYORDER=
